<svg width="20" height="20" viewBox="0 0 20 20" fill="none" xmlns="http://www.w3.org/2000/svg">
<path d="M17.7083 15.1418V15.9918M4.85834 10H15.1417C15.8224 10 16.4753 10.2704 16.9566 10.7517C17.4379 11.2331 17.7083 11.8859 17.7083 12.5667V15.1333H2.29167V12.5667C2.29167 11.8859 2.56209 11.2331 3.04343 10.7517C3.52477 10.2704 4.17761 10 4.85834 10ZM2.29167 15.1418V15.9918V15.1418Z" stroke="white" stroke-linecap="round" stroke-linejoin="round"/>
<path d="M16.85 10.6585V6.57509C16.85 5.89436 16.5796 5.24152 16.0982 4.76018C15.6169 4.27884 14.9641 4.00842 14.2833 4.00842H5.71666C5.03594 4.00842 4.38309 4.27884 3.90175 4.76018C3.42041 5.24152 3.14999 5.89436 3.14999 6.57509V10.6585" stroke="white" stroke-linecap="round" stroke-linejoin="round"/>
<path d="M8.15001 6.57507H6.70834C6.16066 6.57507 5.71667 7.01906 5.71667 7.56674V9.00837C5.71667 9.55612 6.16066 10 6.70834 10H8.15001C8.69767 10 9.14167 9.55612 9.14167 9.00837V7.56674C9.14167 7.01906 8.69767 6.57507 8.15001 6.57507ZM13.2917 6.57507H11.85C11.3023 6.57507 10.8583 7.01906 10.8583 7.56674V9.00837C10.8583 9.55612 11.3023 10 11.85 10H13.2917C13.8393 10 14.2833 9.55612 14.2833 9.00837V7.56674C14.2833 7.01906 13.8393 6.57507 13.2917 6.57507Z" stroke="white" stroke-linecap="round" stroke-linejoin="round"/>
</svg>
