<svg width="99" height="26" viewBox="0 0 99 26" fill="none" xmlns="http://www.w3.org/2000/svg">
<path d="M29.6504 1.51562H36.5439C37.9574 1.51562 39.1719 1.72721 40.1875 2.15039C41.2116 2.57357 41.9987 3.19987 42.5488 4.0293C43.099 4.85872 43.374 5.87858 43.374 7.08887C43.374 8.0791 43.2048 8.92969 42.8662 9.64062C42.5361 10.3431 42.0664 10.9313 41.457 11.4053C40.8561 11.8708 40.1494 12.2432 39.3369 12.5225L38.1309 13.1572H32.1387L32.1133 10.1865H36.5693C37.238 10.1865 37.7923 10.068 38.2324 9.83105C38.6725 9.59408 39.0026 9.264 39.2227 8.84082C39.4512 8.41764 39.5654 7.92676 39.5654 7.36816C39.5654 6.77572 39.4554 6.26367 39.2354 5.83203C39.0153 5.40039 38.681 5.07031 38.2324 4.8418C37.7839 4.61328 37.221 4.49902 36.5439 4.49902H33.459V20H29.6504V1.51562ZM39.9844 20L35.7695 11.7607L39.7939 11.7354L44.0596 19.8223V20H39.9844Z" fill="white"/>
<path d="M53.1804 20.2539C52.114 20.2539 51.1576 20.0846 50.3113 19.7461C49.4649 19.3991 48.7455 18.9209 48.153 18.3115C47.5691 17.7021 47.1205 16.9954 46.8073 16.1914C46.4942 15.3789 46.3376 14.5156 46.3376 13.6016V13.0938C46.3376 12.0527 46.4857 11.1006 46.782 10.2373C47.0782 9.37402 47.5014 8.625 48.0515 7.99023C48.6101 7.35547 49.2872 6.86881 50.0827 6.53027C50.8783 6.18327 51.7754 6.00977 52.7741 6.00977C53.7474 6.00977 54.6107 6.17057 55.364 6.49219C56.1172 6.8138 56.7478 7.27083 57.2556 7.86328C57.7719 8.45573 58.1612 9.16667 58.4236 9.99609C58.6859 10.8171 58.8171 11.7311 58.8171 12.7383V14.2617H47.8991V11.8242H55.2243V11.5449C55.2243 11.0371 55.1312 10.5843 54.945 10.1865C54.7673 9.78027 54.4965 9.45866 54.1325 9.22168C53.7686 8.9847 53.3031 8.86621 52.7361 8.86621C52.2536 8.86621 51.8389 8.97201 51.4919 9.18359C51.1449 9.39518 50.8614 9.69141 50.6413 10.0723C50.4297 10.4531 50.2689 10.9017 50.1589 11.418C50.0573 11.9258 50.0066 12.4844 50.0066 13.0938V13.6016C50.0066 14.1517 50.0827 14.6595 50.2351 15.125C50.3959 15.5905 50.6202 15.9925 50.9079 16.3311C51.2042 16.6696 51.5596 16.932 51.9743 17.1182C52.3975 17.3044 52.8757 17.3975 53.4089 17.3975C54.0691 17.3975 54.6827 17.2705 55.2497 17.0166C55.8252 16.7542 56.3204 16.3607 56.7351 15.8359L58.5124 17.7656C58.2247 18.1803 57.8311 18.5781 57.3318 18.959C56.8409 19.3398 56.2484 19.653 55.5544 19.8984C54.8604 20.1354 54.0691 20.2539 53.1804 20.2539Z" fill="white"/>
<path d="M65.2592 9.19629V20H61.603V6.26367H65.0307L65.2592 9.19629ZM64.726 12.6494H63.7358C63.7358 11.6338 63.867 10.7197 64.1293 9.90723C64.3917 9.08626 64.7599 8.38802 65.2338 7.8125C65.7078 7.22852 66.2706 6.78418 66.9223 6.47949C67.5825 6.16634 68.3188 6.00977 69.1313 6.00977C69.7745 6.00977 70.3627 6.10286 70.8959 6.28906C71.4291 6.47526 71.8862 6.77148 72.267 7.17773C72.6564 7.58398 72.9526 8.12142 73.1557 8.79004C73.3673 9.45866 73.4731 10.2754 73.4731 11.2402V20H69.7914V11.2275C69.7914 10.6182 69.7068 10.1442 69.5375 9.80566C69.3683 9.46712 69.1186 9.23014 68.7885 9.09473C68.4669 8.95085 68.0691 8.87891 67.5952 8.87891C67.1043 8.87891 66.6769 8.97624 66.3129 9.1709C65.9575 9.36556 65.6612 9.63639 65.4243 9.9834C65.1957 10.3219 65.0222 10.7197 64.9038 11.1768C64.7853 11.6338 64.726 12.1247 64.726 12.6494Z" fill="white"/>
<path d="M83.7619 6.26367V8.85352H75.7638V6.26367H83.7619ZM77.7443 2.87402H81.4005V15.8613C81.4005 16.2591 81.4513 16.5638 81.5529 16.7754C81.6629 16.987 81.8237 17.1351 82.0353 17.2197C82.2469 17.2959 82.5135 17.334 82.8351 17.334C83.0636 17.334 83.2668 17.3255 83.4445 17.3086C83.6307 17.2832 83.7873 17.2578 83.9142 17.2324L83.9269 19.9238C83.6138 20.0254 83.2752 20.1058 82.9113 20.165C82.5474 20.2243 82.1453 20.2539 81.7052 20.2539C80.9012 20.2539 80.1987 20.1227 79.5978 19.8604C79.0054 19.5895 78.5483 19.1579 78.2267 18.5654C77.9051 17.973 77.7443 17.1943 77.7443 16.2295V2.87402Z" fill="white"/>
<path d="M90.6991 18.4512L94.3427 6.26367H98.2655L92.743 22.0693C92.6246 22.4163 92.4637 22.7887 92.2606 23.1865C92.066 23.5843 91.7994 23.9609 91.4608 24.3164C91.1307 24.6803 90.7118 24.9766 90.204 25.2051C89.7046 25.4336 89.091 25.5479 88.3632 25.5479C88.0162 25.5479 87.7326 25.5267 87.5126 25.4844C87.2925 25.4421 87.0302 25.3828 86.7255 25.3066V22.6279C86.8186 22.6279 86.9159 22.6279 87.0175 22.6279C87.119 22.6364 87.2164 22.6406 87.3095 22.6406C87.7919 22.6406 88.1854 22.5856 88.4901 22.4756C88.7948 22.3656 89.0402 22.1963 89.2264 21.9678C89.4126 21.7477 89.5608 21.46 89.6708 21.1045L90.6991 18.4512ZM89.1757 6.26367L92.1591 16.2168L92.6796 20.0889L90.1913 20.3555L85.2528 6.26367H89.1757Z" fill="white"/>
<path d="M5.72512 0L15.8626 10.158C16.6749 10.9719 17.9919 10.9719 18.8042 10.158C19.6165 9.34403 19.6165 8.02439 18.8042 7.21045L11.6083 0H17.2152C18.0081 0 18.7457 0.407368 19.1692 1.07917L24.6429 9.76338C25.119 10.5188 25.119 11.4812 24.6429 12.2366L19.1692 20.9208C18.8656 21.4025 18.4006 21.7482 17.8694 21.9053L7.24859 11.2631C6.4363 10.4491 5.11931 10.4491 4.30701 11.2631C3.49472 12.077 3.49472 13.3967 4.30701 14.2106L12.0807 22H2.31112C1.03473 22 0 20.9632 0 19.6842V2.31579C0 1.03682 1.03473 0 2.31112 0H5.72512Z" fill="white"/>
</svg>
