<svg width="91" height="29" viewBox="0 0 91 29" fill="none" xmlns="http://www.w3.org/2000/svg">
<path d="M0.34 28V22.96C0.34 21.856 0.508 20.896 0.844 20.08C1.204 19.264 1.78 18.544 2.572 17.92C3.388 17.272 4.456 16.66 5.776 16.084L10.24 14.104C11.344 13.6 12.184 12.988 12.76 12.268C13.36 11.524 13.66 10.576 13.66 9.424C13.66 8.152 13.276 7.144 12.508 6.4C11.764 5.632 10.696 5.248 9.304 5.248C7.912 5.248 6.832 5.632 6.064 6.4C5.32 7.168 4.948 8.236 4.948 9.604H0.0160001C0.0160001 7.972 0.364 6.508 1.06 5.212C1.756 3.892 2.788 2.86 4.156 2.116C5.524 1.348 7.24 0.963998 9.304 0.963998C11.368 0.963998 13.084 1.336 14.452 2.08C15.82 2.824 16.852 3.82 17.548 5.068C18.244 6.292 18.592 7.66 18.592 9.172V9.64C18.592 11.608 18.04 13.252 16.936 14.572C15.832 15.868 14.212 16.996 12.076 17.956L7.612 19.936C6.772 20.296 6.184 20.68 5.848 21.088C5.512 21.472 5.344 22 5.344 22.672V24.976L4.12 23.644H18.7V28H0.34ZM32.3783 28.72C30.3623 28.72 28.5863 28.396 27.0503 27.748C25.5143 27.1 24.3143 26.176 23.4503 24.976C22.5863 23.776 22.1543 22.348 22.1543 20.692C22.1543 19.588 22.3463 18.616 22.7303 17.776C23.1143 16.912 23.6423 16.18 24.3143 15.58C24.9863 14.956 25.7783 14.488 26.6903 14.176V13.744C25.9943 13.432 25.3583 13.024 24.7823 12.52C24.2303 12.016 23.7863 11.404 23.4503 10.684C23.1383 9.964 22.9823 9.136 22.9823 8.2C22.9823 6.616 23.3903 5.296 24.2063 4.24C25.0463 3.16 26.1743 2.356 27.5903 1.828C29.0303 1.276 30.6263 0.999998 32.3783 0.999998C34.1543 0.999998 35.7503 1.276 37.1663 1.828C38.6063 2.356 39.7343 3.16 40.5503 4.24C41.3903 5.296 41.8103 6.616 41.8103 8.2C41.8103 9.136 41.6423 9.964 41.3063 10.684C40.9943 11.404 40.5623 12.016 40.0103 12.52C39.4583 13.024 38.8223 13.432 38.1023 13.744V14.176C39.0143 14.488 39.8063 14.956 40.4783 15.58C41.1743 16.204 41.7023 16.948 42.0623 17.812C42.4463 18.652 42.6383 19.612 42.6383 20.692C42.6383 22.348 42.2063 23.776 41.3423 24.976C40.5023 26.176 39.3143 27.1 37.7783 27.748C36.2423 28.396 34.4423 28.72 32.3783 28.72ZM32.3783 24.508C33.4823 24.508 34.4303 24.34 35.2223 24.004C36.0143 23.668 36.6263 23.176 37.0583 22.528C37.4903 21.88 37.7063 21.1 37.7063 20.188C37.7063 19.276 37.4903 18.508 37.0583 17.884C36.6503 17.236 36.0383 16.744 35.2223 16.408C34.4303 16.072 33.4823 15.904 32.3783 15.904C31.2983 15.904 30.3623 16.072 29.5703 16.408C28.7783 16.744 28.1663 17.236 27.7343 17.884C27.3023 18.508 27.0863 19.276 27.0863 20.188C27.0863 21.1 27.3023 21.88 27.7343 22.528C28.1663 23.176 28.7783 23.668 29.5703 24.004C30.3623 24.34 31.2983 24.508 32.3783 24.508ZM32.3783 12.088C33.7703 12.088 34.8623 11.8 35.6543 11.224C36.4703 10.624 36.8783 9.76 36.8783 8.632C36.8783 7.456 36.4703 6.592 35.6543 6.04C34.8383 5.488 33.7463 5.212 32.3783 5.212C31.0103 5.212 29.9183 5.5 29.1023 6.076C28.3103 6.628 27.9143 7.48 27.9143 8.632C27.9143 9.76 28.3223 10.624 29.1383 11.224C29.9543 11.8 31.0343 12.088 32.3783 12.088ZM57.8745 28.684C55.8105 28.684 54.0585 28.348 52.6185 27.676C51.1785 26.98 50.0025 26.044 49.0905 24.868C48.1785 23.668 47.5065 22.3 47.0745 20.764C46.6665 19.204 46.4625 17.572 46.4625 15.868V13.852C46.4625 11.428 46.8705 9.244 47.6865 7.3C48.5025 5.356 49.7505 3.82 51.4305 2.692C53.1105 1.54 55.2585 0.963998 57.8745 0.963998C60.4665 0.963998 62.6025 1.54 64.2825 2.692C65.9625 3.82 67.1985 5.356 67.9905 7.3C68.8065 9.244 69.2145 11.428 69.2145 13.852V15.868C69.2145 17.572 68.9985 19.204 68.5665 20.764C68.1585 22.3 67.4985 23.668 66.5865 24.868C65.6985 26.044 64.5345 26.98 63.0945 27.676C61.6545 28.348 59.9145 28.684 57.8745 28.684ZM57.8745 24.004C60.0105 24.004 61.5825 23.272 62.5905 21.808C63.5985 20.32 64.1025 18.016 64.1025 14.896C64.1025 11.584 63.5865 9.22 62.5545 7.804C61.5225 6.364 59.9625 5.644 57.8745 5.644C55.7625 5.644 54.1785 6.364 53.1225 7.804C52.0905 9.22 51.5745 11.56 51.5745 14.824C51.5745 17.968 52.0905 20.284 53.1225 21.772C54.1545 23.26 55.7385 24.004 57.8745 24.004Z" fill="white"/>
<path d="M79.9374 24.508V6.724H84.3294V24.508H79.9374ZM73.4214 17.632V13.6H90.8454V17.632H73.4214Z" fill="#4573FD"/>
</svg>
