<svg width="18" height="20" viewBox="0 0 18 20" fill="none" xmlns="http://www.w3.org/2000/svg">
<path fill-rule="evenodd" clip-rule="evenodd" d="M7.85417 0.833252C7.85417 0.453559 7.54635 0.145752 7.16667 0.145752C6.78698 0.145752 6.47917 0.453559 6.47917 0.833252V2.66659C6.47917 3.04628 6.78698 3.35409 7.16667 3.35409C7.54635 3.35409 7.85417 3.04628 7.85417 2.66659V0.833252ZM11.5208 3.58325C11.5208 3.20356 11.213 2.89575 10.8333 2.89575C10.4537 2.89575 10.1458 3.20356 10.1458 3.58325V5.41659C10.1458 5.79628 10.4537 6.10409 10.8333 6.10409C11.213 6.10409 11.5208 5.79628 11.5208 5.41659V3.58325ZM4.61337 5.15864C4.9772 5.05 5.18407 4.667 5.07543 4.30317C4.9668 3.93936 4.5838 3.73249 4.21997 3.84111C3.33743 4.10462 2.56477 4.45207 1.99737 4.88265C1.43927 5.30619 0.979172 5.89279 0.979172 6.63226C0.979172 10.1464 2.8279 13.2233 5.5625 14.6601V17.3432C5.5625 19.2147 7.53985 20.4166 9.209 19.5877L11.0423 18.6772C11.8957 18.2534 12.4375 17.3853 12.4375 16.4327V14.6601C15.1721 13.2233 17.0208 10.1464 17.0208 6.63226C17.0208 5.89279 16.5608 5.30619 16.0026 4.88265C15.4353 4.45207 14.6626 4.10462 13.7801 3.84111C13.4162 3.73249 13.0332 3.93936 12.9246 4.30317C12.8159 4.667 13.0228 5.05 13.3866 5.15864C14.1806 5.3957 14.783 5.68316 15.1715 5.97797C15.5692 6.27983 15.6458 6.50913 15.6458 6.63226C15.6458 6.74032 15.5895 6.927 15.3027 7.17952C15.017 7.43108 14.5642 7.68898 13.9455 7.91944C12.7132 8.37843 10.9649 8.67625 9 8.67625C7.03513 8.67625 5.28678 8.37843 4.05452 7.91944C3.43579 7.68898 2.98299 7.43108 2.69733 7.17952C2.41057 6.927 2.35417 6.74032 2.35417 6.63226C2.35417 6.50913 2.43081 6.27983 2.82858 5.97797C3.21706 5.68316 3.81939 5.3957 4.61337 5.15864ZM7.16667 4.72909C7.54635 4.72909 7.85417 5.03689 7.85417 5.41659V6.33325C7.85417 6.71294 7.54635 7.02075 7.16667 7.02075C6.78698 7.02075 6.47917 6.71294 6.47917 6.33325V5.41659C6.47917 5.03689 6.78698 4.72909 7.16667 4.72909Z" fill="#4573FD"/>
</svg>
